<svg xmlns="http://www.w3.org/2000/svg" viewBox="0 0 128 128">
  <defs>
    <linearGradient id="bg" x1="0%" y1="0%" x2="100%" y2="100%">
      <stop offset="0%" style="stop-color:#1a1a2e"/>
      <stop offset="100%" style="stop-color:#16213e"/>
    </linearGradient>
  </defs>
  <!-- Background circle -->
  <circle cx="64" cy="64" r="60" fill="url(#bg)" stroke="#00ff88" stroke-width="3"/>
  <!-- Spade symbol -->
  <path d="M64 25 C64 25 35 50 35 65 C35 78 45 85 55 82 C50 90 45 95 40 98 L88 98 C83 95 78 90 73 82 C83 85 93 78 93 65 C93 50 64 25 64 25Z"
        fill="#00ff88" opacity="0.9"/>
  <!-- Stats bars -->
  <rect x="30" y="102" width="18" height="4" rx="2" fill="#00ff88" opacity="0.6"/>
  <rect x="55" y="102" width="14" height="4" rx="2" fill="#00ff88" opacity="0.8"/>
  <rect x="76" y="102" width="22" height="4" rx="2" fill="#00ff88"/>
</svg>
